<svg version="1.0" xmlns="http://www.w3.org/2000/svg"
  width="250" height="250" viewBox="0 0 250 250"
  preserveAspectRatio="xMidYMid meet">
<g transform="translate(0,250) scale(0.1,-0.1)"
fill="#000000" stroke="none">
  <path d="
    M1847 1769
    c -78 -11 -187 -65 -268 -132
    -57 -47 -140 -139 -244 -271
    l -30 -38 -65 83
    c -129 167 -264 282 -388 330
    -69 27 -214 37 -291 20
    -168 -36 -325 -192 -390 -389
    -71 -210 -42 -388 81 -511
    152 -152 400 -172 606 -49
    67 40 219 183 297 278
    l 58 70 31 -41
    c 168 -225 300 -335 449 -375
    29 -8 88 -14 133 -14
    141 0 249 46 345 147
    211 221 255 574 95 751
    -97 107 -264 163 -419 141
    z
    
    m-1089 -188
    c 121 -49 263 -168 382 -322
    l 60 -77 -94 -89
    c -156 -147 -272 -202 -427 -203
    -141 0 -250 44 -341 137
    -78 81 -117 179 -118 298
    0 113 31 171 119 223
    110 64 303 80 419 33
    z

    m999 -668
    c -121 49 -263 168 -382 322
    l -60 77 94 89
    c 156 147 272 202 427 203
    141 0 250 -44 341 -137
    78 -81 117 -179 118 -298
    0 -113 -31 -171 -119 -223
    -110 -64 -303 -80 -419 -33
    z
  "/>
</g>
</svg>
